<svg xmlns="http://www.w3.org/2000/svg" viewBox="0 0 31.01 24.24"><defs><style>.cls-1,.cls-4{fill:#fff;}.cls-1,.cls-3{fill-rule:evenodd;}.cls-2{fill:#4d443c;}.cls-3,.cls-5{fill:#a6a19d;}</style></defs><title>10_2</title><g id="Layer_2" data-name="Layer 2"><g id="Layer_1-2" data-name="Layer 1"><path class="cls-1" d="M15.54,24H11.43C8.63,24,6,21.64,6.35,18.88l-4.5-6.24L3.42,11l4.14,1.67a5.43,5.43,0,0,1,.66-1.24c.61-.83,1.24-.62,2.15-.62H22c.92,0,1.54-.21,2.15.62,1.28,1.73,1.56,5.31,1.87,7.48C26.44,21.64,23.77,24,21,24Z"/><path class="cls-2" d="M14.15,23.67H21a4.9,4.9,0,0,0,.69,0,5.24,5.24,0,0,0,2.91-1.43,3.91,3.91,0,0,0,1.24-2.77,3.58,3.58,0,0,0,0-.5c0-.28-.09-.64-.13-1C25.37,15.79,25,13,24,11.57c-.42-.56-.87-.54-1.46-.52H9.9c-.59,0-1,0-1.46.52a4.24,4.24,0,0,0-.33.54,6.44,6.44,0,0,0-.29.64h0a.29.29,0,0,1-.37.16l-4-1.59L2.21,12.66l4.36,6a.28.28,0,0,1,.06.22,3.58,3.58,0,0,0,0,.5h0a3.91,3.91,0,0,0,1.24,2.77,5.24,5.24,0,0,0,2.91,1.43,4.9,4.9,0,0,0,.69,0Zm1.39.57H11.43a5.49,5.49,0,0,1-.77-.05A5.81,5.81,0,0,1,7.43,22.6,4.47,4.47,0,0,1,6,19.42H6a4.1,4.1,0,0,1,0-.47L1.61,12.8a.29.29,0,0,1,0-.36l1.57-1.66a.29.29,0,0,1,.32-.07L7.4,12.27c.06-.15.13-.29.21-.43A4.75,4.75,0,0,1,8,11.23a1.86,1.86,0,0,1,1.94-.75H22.48a1.86,1.86,0,0,1,1.94.75c1.14,1.54,1.51,4.42,1.79,6.6,0,.34.08.66.13,1a4.13,4.13,0,0,1,0,.58A4.47,4.47,0,0,1,25,22.6a5.81,5.81,0,0,1-3.23,1.59,5.49,5.49,0,0,1-.77.05Z"/><path class="cls-3" d="M15.54,24H11.43c-2.68,0-5.25-2.13-5.11-4.74H26.08C26.23,21.82,23.65,24,21,24Z"/><path class="cls-2" d="M25,12.92a.28.28,0,0,1-.25-.51,11.25,11.25,0,0,1,1.65-.69,2.75,2.75,0,0,1,1.3-.1,4,4,0,0,1,2.66,1.64,3.82,3.82,0,0,1,.59,1.41,4.12,4.12,0,0,1,0,1.53A4.44,4.44,0,0,1,29,19.1c-.42.29-.91.56-1.48.87s-1,.53-1.51.86a.29.29,0,0,1-.29-.49c.58-.34,1.08-.62,1.53-.87s1-.57,1.44-.84a3.87,3.87,0,0,0,1.66-2.52,3.56,3.56,0,0,0,0-1.32,3.26,3.26,0,0,0-.5-1.2,3.41,3.41,0,0,0-2.29-1.4,2.22,2.22,0,0,0-1,.08,10.84,10.84,0,0,0-1.56.65"/><path class="cls-1" d="M22.82,10.71c-.08-.79-.76-1.83-1.57-1.83H17.19a1,1,0,1,0-1.89,0H11.24c-.81,0-1.48,1-1.57,1.82.31,0,.65,0,1,0h11c.43,0,.8,0,1.14,0"/><path class="cls-2" d="M22.46,9.23a2.81,2.81,0,0,1,.64,1.44v0a.28.28,0,0,1-.29.28h-.56l-.57,0h-11l-.57,0H9.65a.29.29,0,0,1-.25-.31A2.81,2.81,0,0,1,10,9.23a1.63,1.63,0,0,1,1.21-.64h3.7s0-.06,0-.1a1.31,1.31,0,0,1,2.61,0s0,.06,0,.1h3.7a1.63,1.63,0,0,1,1.21.64m0,1.19A2.3,2.3,0,0,0,22,9.6a1.08,1.08,0,0,0-.77-.44H17.19a.29.29,0,0,1-.29-.29.28.28,0,0,1,0-.12.74.74,0,0,0,0-.12h0a.73.73,0,1,0-1.46-.13.71.71,0,0,0,.05.28.29.29,0,0,1-.16.37l-.11,0H11.24a1.08,1.08,0,0,0-.77.44,2.3,2.3,0,0,0-.45.82H22.47Z"/><path class="cls-4" d="M24.07,20.35a.29.29,0,0,1,.51.25,4.27,4.27,0,0,1-1.79,1.79,5.52,5.52,0,0,1-2.65.69H15.4a.29.29,0,1,1,0-.57h4.75a4.94,4.94,0,0,0,2.37-.61,3.7,3.7,0,0,0,1.55-1.54"/><path class="cls-5" d="M9.26,12.11a.29.29,0,1,1,0-.57H20.41a.29.29,0,1,1,0,.57Z"/><path class="cls-5" d="M9.77,15.49a.29.29,0,1,1,0-.57h4.18a.29.29,0,1,1,0,.57Z"/><path class="cls-5" d="M8.63,14.81a.29.29,0,1,1,0-.57h6.12a.29.29,0,1,1,0,.57Z"/><path class="cls-5" d="M9.29,14.12a.29.29,0,1,1,0-.57h1.12a.29.29,0,0,1,0,.57Z"/><path class="cls-2" d="M21.38,24.24a.29.29,0,0,1,0-.57h6.2a.29.29,0,0,1,0,.57Z"/><path class="cls-2" d="M24.5,23a.29.29,0,0,1,0-.57h1.88a.29.29,0,0,1,0,.57Z"/><path class="cls-2" d="M23.33,23.71a.29.29,0,1,1,0-.57h5.8a.29.29,0,1,1,0,.57Z"/><path class="cls-5" d="M3.94,12.68a.29.29,0,0,1,.24-.52l2.68,1.23a.29.29,0,1,1-.24.52Z"/><path class="cls-5" d="M23.24,13.76a.28.28,0,0,1,.56-.11l.81,4a.28.28,0,0,1-.56.11Z"/><path class="cls-2" d="M2.12,2a3.15,3.15,0,0,0-.38-.57A4,4,0,0,1,2,2.07a4,4,0,0,1,.1.68c0,.05,0,.11,0,.17A3.7,3.7,0,0,1,2,3.5,3.74,3.74,0,0,1,1.88,4v0c-.07.21-.15.42-.24.63s-.18.4-.27.6l-.09.2c-.16.36-.33.73-.47,1.13h0A3.74,3.74,0,0,0,.57,8h0s0,.09,0,.13a2.54,2.54,0,0,0,.14.72h0A2.55,2.55,0,0,0,1,9.44H1a3,3,0,0,1-.16-1c0-.06,0-.12,0-.19s0-.11,0-.17v0A6.29,6.29,0,0,1,1.6,6.16l.29-.6h0a7.12,7.12,0,0,0,.28-.68,6.93,6.93,0,0,0,.2-.68h0a3.37,3.37,0,0,0,.06-.37,3.35,3.35,0,0,0,0-.37,3.34,3.34,0,0,0,0-.37,3.4,3.4,0,0,0-.06-.36h0A3.15,3.15,0,0,0,2.12,2M1,0l.31.2.3.24.15.13.15.15h0L2.15,1v0a3.76,3.76,0,0,1,.46.7,3.74,3.74,0,0,1,.3.8v0A3.93,3.93,0,0,1,3,3a3.91,3.91,0,0,1,0,.44,3.92,3.92,0,0,1,0,.44,4,4,0,0,1-.07.43v0a7.47,7.47,0,0,1-.22.73,7.7,7.7,0,0,1-.3.73l-.29.62a5.89,5.89,0,0,0-.64,1.75v0s0,.09,0,.14,0,.1,0,.16a2.37,2.37,0,0,0,.13.78,6.53,6.53,0,0,0,.58,1.21.29.29,0,0,1-.39.39,3.87,3.87,0,0,1-.65-.47l0,0a4,4,0,0,1-.52-.58h0A3.12,3.12,0,0,1,.17,9h0A3.11,3.11,0,0,1,0,8.11C0,8.06,0,8,0,8H0A4.38,4.38,0,0,1,.27,6.44C.42,6,.59,5.64.76,5.27l.09-.19v0q.14-.28.26-.57c.08-.19.16-.39.22-.6h0a3.17,3.17,0,0,0,.11-.46,3.15,3.15,0,0,0,0-.49s0-.09,0-.13a3.43,3.43,0,0,0-.09-.58,3.43,3.43,0,0,0-.19-.56h0C1.11,1.44,1,1.24.91,1S.69.64.58.45A.29.29,0,0,1,.87,0h0Z"/><path class="cls-2" d="M25.8,19.22a.29.29,0,1,1,.57,0q0,.13,0,.22a4.52,4.52,0,0,1-1.57,3.34,5.81,5.81,0,0,1-3.53,1.48H11.13A5.81,5.81,0,0,1,7.6,22.75,4.52,4.52,0,0,1,6,19.42q0-.1,0-.22a.29.29,0,1,1,.57,0c0,.06,0,.12,0,.19A4,4,0,0,0,8,22.33a5.23,5.23,0,0,0,3.18,1.33H21.24a5.23,5.23,0,0,0,3.18-1.33,4,4,0,0,0,1.38-2.91c0-.07,0-.14,0-.19"/><path class="cls-1" d="M3.41,16.75h8.12v2.14c0,2.51-1.45,4-3.24,4H6.65c-1.8,0-3.24-1.49-3.24-4Z"/><path class="cls-2" d="M7,17H3.7v1.85a4.21,4.21,0,0,0,.83,2.69,2.69,2.69,0,0,0,2.13,1H8.28a2.69,2.69,0,0,0,2.13-1,4.21,4.21,0,0,0,.83-2.69V17Zm-3.55-.57h8.12a.29.29,0,0,1,.29.29v2.14a4.77,4.77,0,0,1-1,3.05,3.25,3.25,0,0,1-2.57,1.23H6.65a3.25,3.25,0,0,1-2.57-1.23,4.77,4.77,0,0,1-1-3.05V16.75A.29.29,0,0,1,3.41,16.46Z"/><path class="cls-2" d="M11.24,21.28a.29.29,0,0,1-.27-.51l.59-.3c.27-.14.53-.27.78-.41a1.82,1.82,0,0,0,1-1.23,1.14,1.14,0,0,0-.07-.58A1.29,1.29,0,0,0,13,17.8a.71.71,0,0,0-.6-.25.74.74,0,0,0-.31.15,1.1,1.1,0,0,0-.29.43.29.29,0,1,1-.52-.22,1.64,1.64,0,0,1,.45-.65,1.29,1.29,0,0,1,.54-.26,1.27,1.27,0,0,1,1.13.39,1.86,1.86,0,0,1,.44.67,1.7,1.7,0,0,1,.1.87,2.36,2.36,0,0,1-1.3,1.64c-.24.14-.52.28-.81.42l-.58.3"/><path class="cls-1" d="M7.64,24H4.09c-.55,0-1-.69-1.06-1.57.21,0,.44,0,.7,0H11.2c.26,0,.49,0,.7,0-.06.88-.51,1.57-1.06,1.57Z"/><path class="cls-2" d="M7.29,23.67h3.55a.62.62,0,0,0,.47-.32,1.85,1.85,0,0,0,.27-.7h0l-.36,0H3.73l-.36,0h0a1.86,1.86,0,0,0,.27.7.62.62,0,0,0,.47.32Zm.35.57H4.09a1.16,1.16,0,0,1-.95-.58,2.59,2.59,0,0,1-.4-1.26A.28.28,0,0,1,3,22.1h.32l.4,0H11.2l.4,0h.3a.28.28,0,0,1,.29.28v0a2.58,2.58,0,0,1-.39,1.26,1.16,1.16,0,0,1-.95.58Z"/></g></g></svg>